<svg width="71" height="18" viewBox="0 0 71 18" fill="none" xmlns="http://www.w3.org/2000/svg">
<g clip-path="url(#clip0_117_3076)">
<path fill-rule="evenodd" clip-rule="evenodd" d="M61.9461 3.52672C62.5538 3.52672 63.1772 3.54236 63.7814 3.56794L64.495 3.60206L65.178 3.64257L65.8177 3.68593L66.402 3.73142C67.036 3.77995 67.6327 4.05052 68.0869 4.49553C68.5411 4.94054 68.8239 5.53149 68.8854 6.16441L68.9139 6.46648L68.9672 7.11329C69.0169 7.78355 69.0539 8.51423 69.0539 9.21292C69.0539 9.91161 69.0169 10.6423 68.9672 11.3126L68.9139 11.9594C68.9046 12.0631 68.8954 12.1633 68.8854 12.2614C68.8239 12.8945 68.541 13.4855 68.0866 13.9305C67.6322 14.3756 67.0354 14.646 66.4013 14.6944L65.8184 14.7392L65.1787 14.7833L64.495 14.8238L63.7814 14.8579C63.17 14.8845 62.5581 14.8982 61.9461 14.8991C61.3342 14.8982 60.7223 14.8845 60.1109 14.8579L59.3973 14.8238L58.7142 14.7833L58.0745 14.7392L57.4903 14.6944C56.8562 14.6459 56.2596 14.3753 55.8054 13.9303C55.3511 13.4853 55.0684 12.8944 55.0068 12.2614L54.9784 11.9594L54.9251 11.3126C54.8707 10.614 54.8418 9.91362 54.8384 9.21292C54.8384 8.51423 54.8753 7.78355 54.9251 7.11329L54.9784 6.46648C54.9876 6.36271 54.9969 6.26249 55.0068 6.16441C55.0683 5.5316 55.351 4.94075 55.8051 4.49575C56.2592 4.05075 56.8557 3.78011 57.4896 3.73142L58.0731 3.68593L58.7128 3.64257L59.3966 3.60206L60.1102 3.56794C60.7218 3.54138 61.3339 3.52764 61.9461 3.52672ZM60.5246 7.48929V10.9366C60.5246 11.2649 60.88 11.4696 61.1643 11.3062L64.1495 9.58252C64.2145 9.54513 64.2685 9.49128 64.306 9.42639C64.3435 9.3615 64.3632 9.28787 64.3632 9.21292C64.3632 9.13797 64.3435 9.06434 64.306 8.99945C64.2685 8.93456 64.2145 8.88071 64.1495 8.84332L61.1643 7.1204C61.0994 7.08296 61.0259 7.06325 60.951 7.06326C60.8761 7.06327 60.8025 7.083 60.7377 7.12047C60.6729 7.15793 60.619 7.2118 60.5816 7.27667C60.5442 7.34154 60.5245 7.41512 60.5246 7.49V7.48929Z" fill="#E5726D"/>
</g>
<path fill-rule="evenodd" clip-rule="evenodd" d="M46.8088 3.36426C47.3259 3.36426 47.8217 3.56966 48.1874 3.93527C48.553 4.30088 48.7584 4.79676 48.7584 5.31381V13.112C48.7584 13.6291 48.553 14.125 48.1874 14.4906C47.8217 14.8562 47.3259 15.0616 46.8088 15.0616H39.0106C38.4935 15.0616 37.9977 14.8562 37.632 14.4906C37.2664 14.125 37.061 13.6291 37.061 13.112V5.31381C37.061 4.79676 37.2664 4.30088 37.632 3.93527C37.9977 3.56966 38.4935 3.36426 39.0106 3.36426H46.8088ZM40.3103 7.91322C40.1379 7.91322 39.9727 7.98169 39.8508 8.10356C39.7289 8.22543 39.6604 8.39072 39.6604 8.56307V11.8123C39.6604 11.9847 39.7289 12.15 39.8508 12.2718C39.9727 12.3937 40.1379 12.4622 40.3103 12.4622C40.4826 12.4622 40.6479 12.3937 40.7698 12.2718C40.8917 12.15 40.9601 11.9847 40.9601 11.8123V8.56307C40.9601 8.39072 40.8917 8.22543 40.7698 8.10356C40.6479 7.98169 40.4826 7.91322 40.3103 7.91322ZM42.2598 7.26337C42.0875 7.26337 41.9222 7.33183 41.8003 7.45371C41.6785 7.57558 41.61 7.74087 41.61 7.91322V11.8123C41.61 11.9847 41.6785 12.15 41.8003 12.2718C41.9222 12.3937 42.0875 12.4622 42.2598 12.4622C42.4322 12.4622 42.5975 12.3937 42.7194 12.2718C42.8412 12.15 42.9097 11.9847 42.9097 11.8123V9.43387C43.1079 9.21032 43.4426 8.94778 43.8149 8.78857C44.0313 8.69629 44.3569 8.6586 44.5831 8.73008C44.6581 8.74912 44.7249 8.79199 44.7735 8.85225C44.8073 8.89774 44.8593 8.99912 44.8593 9.21292V11.8123C44.8593 11.9847 44.9277 12.15 45.0496 12.2718C45.1715 12.3937 45.3368 12.4622 45.5091 12.4622C45.6815 12.4622 45.8468 12.3937 45.9686 12.2718C46.0905 12.15 46.159 11.9847 46.159 11.8123V9.21292C46.159 8.77752 46.0485 8.39021 45.8184 8.07958C45.6068 7.79791 45.3105 7.59136 44.973 7.49017C44.3868 7.30626 43.7376 7.40828 43.3042 7.59414C43.1653 7.65358 43.0301 7.72129 42.8993 7.7969C42.8721 7.64716 42.7931 7.51174 42.6763 7.41424C42.5594 7.31674 42.412 7.26335 42.2598 7.26337ZM40.3103 5.96366C40.1379 5.96366 39.9727 6.03213 39.8508 6.154C39.7289 6.27587 39.6604 6.44116 39.6604 6.61352C39.6604 6.78587 39.7289 6.95116 39.8508 7.07303C39.9727 7.1949 40.1379 7.26337 40.3103 7.26337C40.4826 7.26337 40.6479 7.1949 40.7698 7.07303C40.8917 6.95116 40.9601 6.78587 40.9601 6.61352C40.9601 6.44116 40.8917 6.27587 40.7698 6.154C40.6479 6.03213 40.4826 5.96366 40.3103 5.96366Z" fill="#E5726D"/>
<path d="M26.4133 3.30329C27.0645 3.30503 27.3949 3.3085 27.6803 3.3166L27.7925 3.32065C27.9222 3.32528 28.0501 3.33107 28.2046 3.33802C28.8205 3.36696 29.2406 3.46419 29.6093 3.60715C29.9913 3.75416 30.3131 3.95325 30.6349 4.27447C30.9292 4.5638 31.1569 4.91378 31.3022 5.30006C31.4452 5.66874 31.5424 6.08893 31.5714 6.70533C31.5783 6.85928 31.5841 6.98719 31.5887 7.11741L31.5922 7.2297C31.6009 7.51445 31.6044 7.84493 31.6055 8.49605L31.6061 8.92782V9.68601C31.6075 10.1082 31.6031 10.5303 31.5928 10.9524L31.5893 11.0647C31.5847 11.1949 31.5789 11.3228 31.5719 11.4767C31.543 12.0931 31.4446 12.5127 31.3022 12.882C31.1574 13.2685 30.9296 13.6186 30.6349 13.9076C30.3455 14.2018 29.9955 14.4295 29.6093 14.5749C29.2406 14.7179 28.8205 14.8151 28.2046 14.844C28.0673 14.8505 27.9299 14.8563 27.7925 14.8614L27.6803 14.8649C27.3949 14.873 27.0645 14.877 26.4133 14.8782L25.9816 14.8788H25.2239C24.8016 14.8802 24.3792 14.8758 23.957 14.8655L23.8447 14.862C23.7073 14.8568 23.57 14.8508 23.4326 14.844C22.8168 14.8151 22.3966 14.7179 22.0274 14.5749C21.6411 14.4299 21.2913 14.2021 21.0024 13.9076C20.7078 13.6184 20.4799 13.2684 20.3345 12.882C20.1915 12.5133 20.0943 12.0931 20.0653 11.4767C20.0589 11.3394 20.0531 11.202 20.048 11.0647L20.0451 10.9524C20.0344 10.5303 20.0296 10.1082 20.0306 9.68601V8.49605C20.029 8.0739 20.0332 7.65174 20.0433 7.2297L20.0474 7.11741C20.052 6.98719 20.0578 6.85928 20.0648 6.70533C20.0937 6.08893 20.1909 5.66932 20.3339 5.30006C20.4792 4.91339 20.7076 4.5633 21.0029 4.27447C21.2918 3.98015 21.6414 3.75241 22.0274 3.60715C22.3966 3.46419 22.8162 3.36696 23.4326 3.33802C23.5866 3.33107 23.7151 3.32528 23.8447 3.32065L23.957 3.31718C24.379 3.3069 24.8012 3.30246 25.2234 3.30387L26.4133 3.30329ZM25.8183 6.19716C25.0508 6.19716 24.3148 6.50205 23.7721 7.04476C23.2294 7.58746 22.9245 8.32353 22.9245 9.09103C22.9245 9.85854 23.2294 10.5946 23.7721 11.1373C24.3148 11.68 25.0508 11.9849 25.8183 11.9849C26.5859 11.9849 27.3219 11.68 27.8646 11.1373C28.4073 10.5946 28.7122 9.85854 28.7122 9.09103C28.7122 8.32353 28.4073 7.58746 27.8646 7.04476C27.3219 6.50205 26.5859 6.19716 25.8183 6.19716ZM25.8183 7.35471C26.0464 7.35467 26.2722 7.39955 26.4828 7.48677C26.6935 7.57399 26.8849 7.70186 27.0462 7.86306C27.2075 8.02427 27.3354 8.21566 27.4227 8.4263C27.51 8.63695 27.5549 8.86273 27.555 9.09074C27.555 9.31876 27.5101 9.54455 27.4229 9.75523C27.3357 9.9659 27.2078 10.1573 27.0466 10.3186C26.8854 10.4799 26.694 10.6078 26.4834 10.6951C26.2727 10.7824 26.0469 10.8273 25.8189 10.8274C25.3584 10.8274 24.9168 10.6444 24.5912 10.3188C24.2655 9.99318 24.0826 9.55153 24.0826 9.09103C24.0826 8.63053 24.2655 8.18889 24.5912 7.86327C24.9168 7.53764 25.3584 7.35471 25.8189 7.35471M28.8575 5.329C28.6656 5.329 28.4816 5.40522 28.3459 5.5409C28.2102 5.67658 28.134 5.86059 28.134 6.05247C28.134 6.24434 28.2102 6.42836 28.3459 6.56404C28.4816 6.69971 28.6656 6.77594 28.8575 6.77594C29.0494 6.77594 29.2334 6.69971 29.3691 6.56404C29.5047 6.42836 29.581 6.24434 29.581 6.05247C29.581 5.86059 29.5047 5.67658 29.3691 5.5409C29.2334 5.40522 29.0494 5.329 28.8575 5.329Z" fill="#E5726D"/>
<g clip-path="url(#clip1_117_3076)">
<path d="M4.9624 7.29827C5.01902 7.26236 5.08365 7.24103 5.15051 7.23617C5.21738 7.23131 5.28441 7.24308 5.34563 7.27043C5.40684 7.29778 5.46033 7.33985 5.50133 7.3929C5.54232 7.44595 5.56955 7.50833 5.58057 7.57446L5.6943 8.25355C5.70728 8.33084 5.69762 8.41024 5.66649 8.48216C5.63535 8.55409 5.58408 8.61547 5.51884 8.6589L5.11187 8.93021C5.01249 8.59341 4.96215 8.24405 4.9624 7.89289V7.29827ZM8.61782 11.5483C8.26666 11.5486 7.91729 11.4982 7.58049 11.3988L7.85181 10.9927C7.89514 10.9273 7.95647 10.8759 8.0284 10.8446C8.10033 10.8133 8.17978 10.8035 8.25715 10.8164L8.93625 10.9301C9.00238 10.9412 9.06475 10.9684 9.1178 11.0094C9.17085 11.0504 9.21293 11.1039 9.24028 11.1651C9.26763 11.2263 9.2794 11.2933 9.27454 11.3602C9.26968 11.4271 9.24834 11.4917 9.21243 11.5483H8.61782Z" fill="#E5726D"/>
<path fill-rule="evenodd" clip-rule="evenodd" d="M0.900885 9.51786C0.900946 8.15629 1.35711 6.83398 2.19656 5.76198C3.03602 4.68998 4.21038 3.93007 5.53222 3.60355C6.85406 3.27703 8.24718 3.40271 9.48923 3.96053C10.7313 4.51836 11.7507 5.47617 12.3847 6.6811C13.0188 7.88604 13.2309 9.26863 12.9873 10.6082C12.7437 11.9478 12.0583 13.1672 11.0406 14.0718C10.023 14.9763 8.7316 15.5139 7.37268 15.5987C6.01375 15.6835 4.66558 15.3106 3.54334 14.5396L1.48819 15.5672C1.41203 15.6049 1.32596 15.6178 1.24209 15.604C1.15822 15.5903 1.08078 15.5505 1.02068 15.4904C0.960581 15.4303 0.92085 15.3529 0.907083 15.269C0.893316 15.1851 0.906206 15.0991 0.943938 15.0229L1.97152 12.9678C1.27256 11.9532 0.899115 10.7499 0.900885 9.51786ZM4.33698 6.73974L4.50431 6.62764C4.67359 6.51489 4.8684 6.44631 5.07097 6.42814C5.27355 6.40998 5.47745 6.44281 5.66409 6.52365C5.85072 6.60449 6.01415 6.73077 6.13947 6.89096C6.2648 7.05115 6.34803 7.24017 6.38157 7.44077L6.4953 8.12068C6.5339 8.3523 6.50476 8.59014 6.41138 8.80559C6.31799 9.02103 6.16434 9.20491 5.96892 9.33509L5.43441 9.69088C5.76198 10.27 6.24069 10.7493 6.81941 11.0775L7.17683 10.543C7.30695 10.3477 7.49069 10.1942 7.70598 10.1008C7.92126 10.0074 8.15893 9.97818 8.39043 10.0166L9.07033 10.1303C9.27094 10.1639 9.45995 10.2471 9.62014 10.3724C9.78034 10.4978 9.90661 10.6612 9.98745 10.8478C10.0683 11.0345 10.1011 11.2384 10.083 11.4409C10.0648 11.6435 9.99621 11.8383 9.88346 12.0076L9.77136 12.1758C9.73457 12.2328 9.68406 12.2797 9.62446 12.3122C9.56487 12.3447 9.49807 12.3617 9.43019 12.3618H8.61787C8.0311 12.3618 7.45006 12.2462 6.90796 12.0216C6.36586 11.797 5.8733 11.4679 5.45842 11.0529C5.04355 10.638 4.71447 10.1453 4.49 9.60321C4.26552 9.06106 4.15004 8.48001 4.15014 7.89323V7.08091C4.15026 7.01296 4.16742 6.94611 4.20006 6.88651C4.2327 6.8269 4.27978 6.77644 4.33698 6.73974Z" fill="#E5726D"/>
</g>
<defs>
<clipPath id="clip0_117_3076">
<rect width="17.0586" height="17.0586" fill="white" transform="translate(53.417 0.683594)"/>
</clipPath>
<clipPath id="clip1_117_3076">
<rect width="12.1847" height="12.1847" fill="white" transform="translate(0.900879 3.42516)"/>
</clipPath>
</defs>
</svg>
