<svg width="27" height="26" viewBox="0 0 27 26" fill="none" xmlns="http://www.w3.org/2000/svg">
<path fill-rule="evenodd" clip-rule="evenodd" d="M13.6882 4.32068C14.6117 4.32068 15.559 4.34444 16.4771 4.38333L17.5616 4.43517L18.5996 4.49674L19.5718 4.56263L20.4597 4.63176C21.4232 4.70551 22.3299 5.11669 23.0202 5.79296C23.7105 6.46924 24.1402 7.36728 24.2337 8.32911L24.2769 8.78817L24.3579 9.77111C24.4335 10.7897 24.4897 11.9001 24.4897 12.9619C24.4897 14.0237 24.4335 15.134 24.3579 16.1526L24.2769 17.1356C24.2629 17.2933 24.2488 17.4456 24.2337 17.5946C24.1401 18.5566 23.7103 19.4548 23.0198 20.1311C22.3292 20.8074 21.4223 21.2185 20.4586 21.292L19.5729 21.36L18.6007 21.427L17.5616 21.4886L16.4771 21.5404C15.548 21.5808 14.6182 21.6017 13.6882 21.6031C12.7582 21.6017 11.8284 21.5808 10.8993 21.5404L9.81479 21.4886L8.77677 21.427L7.80463 21.36L6.91675 21.292C5.95321 21.2182 5.04653 20.807 4.35623 20.1308C3.66593 19.4545 3.23623 18.5565 3.14271 17.5946L3.09951 17.1356L3.0185 16.1526C2.93591 15.091 2.89195 14.0267 2.88672 12.9619C2.88672 11.9001 2.94289 10.7897 3.0185 9.77111L3.09951 8.78817C3.11355 8.63047 3.12759 8.47817 3.14271 8.32911C3.23619 7.36745 3.66574 6.46954 4.35582 5.79329C5.0459 5.11704 5.95232 4.70575 6.91567 4.63176L7.80247 4.56263L8.77461 4.49674L9.81371 4.43517L10.8982 4.38333C11.8276 4.34297 12.7579 4.32208 13.6882 4.32068ZM11.5279 10.3425V15.5812C11.5279 16.0803 12.068 16.3913 12.5 16.1429L17.0367 13.5235C17.1354 13.4667 17.2174 13.3849 17.2744 13.2863C17.3314 13.1877 17.3614 13.0758 17.3614 12.9619C17.3614 12.848 17.3314 12.7361 17.2744 12.6375C17.2174 12.5389 17.1354 12.457 17.0367 12.4002L12.5 9.78191C12.4015 9.72501 12.2897 9.69507 12.1759 9.69508C12.0621 9.6951 11.9503 9.72508 11.8518 9.78201C11.7532 9.83895 11.6714 9.92082 11.6146 10.0194C11.5577 10.118 11.5278 10.2298 11.5279 10.3436V10.3425Z" fill="white"/>
</svg>
