<svg width="81" height="82" viewBox="0 0 81 82" fill="none" xmlns="http://www.w3.org/2000/svg">
<path fill-rule="evenodd" clip-rule="evenodd" d="M60.5402 10.8281C63.2076 10.8281 65.7656 11.8877 67.6517 13.7738C69.5378 15.6599 70.5974 18.2179 70.5974 20.8853V61.1138C70.5974 63.7812 69.5378 66.3392 67.6517 68.2253C65.7656 70.1114 63.2076 71.171 60.5402 71.171H20.3117C17.6443 71.171 15.0863 70.1114 13.2002 68.2253C11.3141 66.3392 10.2545 63.7812 10.2545 61.1138V20.8853C10.2545 18.2179 11.3141 15.6599 13.2002 13.7738C15.0863 11.8877 17.6443 10.8281 20.3117 10.8281H60.5402ZM27.0164 34.2948C26.1273 34.2948 25.2746 34.648 24.6459 35.2767C24.0172 35.9054 23.664 36.7581 23.664 37.6472V54.4091C23.664 55.2982 24.0172 56.1509 24.6459 56.7796C25.2746 57.4083 26.1273 57.7615 27.0164 57.7615C27.9055 57.7615 28.7582 57.4083 29.3869 56.7796C30.0156 56.1509 30.3688 55.2982 30.3688 54.4091V37.6472C30.3688 36.7581 30.0156 35.9054 29.3869 35.2767C28.7582 34.648 27.9055 34.2948 27.0164 34.2948ZM37.0736 30.9424C36.1845 30.9424 35.3318 31.2956 34.7031 31.9243C34.0744 32.553 33.7212 33.4057 33.7212 34.2948V54.4091C33.7212 55.2982 34.0744 56.1509 34.7031 56.7796C35.3318 57.4083 36.1845 57.7615 37.0736 57.7615C37.9627 57.7615 38.8154 57.4083 39.4441 56.7796C40.0728 56.1509 40.4259 55.2982 40.4259 54.4091V42.1394C41.4484 40.9861 43.1749 39.6318 45.0958 38.8105C46.2122 38.3344 47.8917 38.14 49.0583 38.5087C49.4453 38.6069 49.79 38.8281 50.0406 39.139C50.2149 39.3736 50.4831 39.8966 50.4831 40.9996V54.4091C50.4831 55.2982 50.8363 56.1509 51.465 56.7796C52.0937 57.4083 52.9464 57.7615 53.8355 57.7615C54.7246 57.7615 55.5773 57.4083 56.206 56.7796C56.8347 56.1509 57.1879 55.2982 57.1879 54.4091V40.9996C57.1879 38.7535 56.6179 36.7554 55.4312 35.153C54.3392 33.6999 52.8108 32.6344 51.0698 32.1124C48.0459 31.1637 44.6969 31.69 42.4608 32.6488C41.7444 32.9554 41.047 33.3047 40.3723 33.6947C40.2318 32.9223 39.8246 32.2237 39.2218 31.7207C38.6189 31.2177 37.8587 30.9423 37.0736 30.9424ZM27.0164 24.2376C26.1273 24.2376 25.2746 24.5908 24.6459 25.2195C24.0172 25.8482 23.664 26.7009 23.664 27.59C23.664 28.4791 24.0172 29.3318 24.6459 29.9605C25.2746 30.5892 26.1273 30.9424 27.0164 30.9424C27.9055 30.9424 28.7582 30.5892 29.3869 29.9605C30.0156 29.3318 30.3688 28.4791 30.3688 27.59C30.3688 26.7009 30.0156 25.8482 29.3869 25.2195C28.7582 24.5908 27.9055 24.2376 27.0164 24.2376Z" fill="white"/>
</svg>
