<svg width="89" height="88" viewBox="0 0 89 88" fill="none" xmlns="http://www.w3.org/2000/svg">
<path fill-rule="evenodd" clip-rule="evenodd" d="M44.6283 14.667C47.7633 14.667 50.979 14.7477 54.0957 14.8797L57.777 15.0557L61.3007 15.2647L64.6007 15.4883L67.6147 15.723C70.8855 15.9733 73.9633 17.3691 76.3066 19.6648C78.6499 21.9605 80.1086 25.009 80.426 28.274L80.5727 29.8323L80.8477 33.169C81.1043 36.6267 81.295 40.396 81.295 44.0003C81.295 47.6047 81.1043 51.374 80.8477 54.8317L80.5727 58.1683C80.525 58.7037 80.4773 59.2207 80.426 59.7267C80.1084 62.9923 78.6492 66.0412 76.3052 68.337C73.9612 70.6327 70.8825 72.0281 67.611 72.2777L64.6043 72.5087L61.3043 72.736L57.777 72.945L54.0957 73.121C50.9417 73.258 47.7853 73.329 44.6283 73.3337C41.4714 73.329 38.3149 73.258 35.161 73.121L31.4797 72.945L27.956 72.736L24.656 72.5087L21.642 72.2777C18.3712 72.0273 15.2934 70.6315 12.9501 68.3359C10.6068 66.0402 9.14811 62.9917 8.83067 59.7267L8.684 58.1683L8.409 54.8317C8.12864 51.2278 7.97943 47.615 7.96167 44.0003C7.96167 40.396 8.15234 36.6267 8.409 33.169L8.684 29.8323C8.73167 29.297 8.77934 28.78 8.83067 28.274C9.14799 25.0096 10.6061 21.9615 12.9487 19.6659C15.2912 17.3703 18.3681 15.9742 21.6383 15.723L24.6487 15.4883L27.9487 15.2647L31.476 15.0557L35.1573 14.8797C38.3125 14.7426 41.4702 14.6717 44.6283 14.667ZM37.295 35.1087V52.892C37.295 54.586 39.1283 55.642 40.595 54.7987L55.995 45.907C56.3301 45.7141 56.6085 45.4363 56.802 45.1016C56.9955 44.7668 57.0974 44.387 57.0974 44.0003C57.0974 43.6137 56.9955 43.2338 56.802 42.8991C56.6085 42.5644 56.3301 42.2866 55.995 42.0937L40.595 33.2057C40.2605 33.0125 39.881 32.9109 39.4946 32.9109C39.1083 32.911 38.7289 33.0128 38.3944 33.206C38.0599 33.3993 37.7822 33.6772 37.5892 34.0118C37.3962 34.3465 37.2948 34.726 37.295 35.1123V35.1087Z" fill="white"/>
</svg>
