<svg width="25" height="24" viewBox="0 0 25 24" fill="none" xmlns="http://www.w3.org/2000/svg">
<path fill-rule="evenodd" clip-rule="evenodd" d="M18.6846 3.07361C19.4703 3.07361 20.2239 3.38575 20.7795 3.94136C21.3351 4.49697 21.6473 5.25055 21.6473 6.0363V17.8871C21.6473 18.6728 21.3351 19.4264 20.7795 19.982C20.2239 20.5376 19.4703 20.8498 18.6846 20.8498H6.83379C6.04803 20.8498 5.29446 20.5376 4.73885 19.982C4.18323 19.4264 3.87109 18.6728 3.87109 17.8871V6.0363C3.87109 5.25055 4.18323 4.49697 4.73885 3.94136C5.29446 3.38575 6.04803 3.07361 6.83379 3.07361H18.6846ZM8.80892 9.98656C8.547 9.98656 8.29581 10.0906 8.1106 10.2758C7.9254 10.461 7.82135 10.7122 7.82135 10.9741V15.9119C7.82135 16.1739 7.9254 16.4251 8.1106 16.6103C8.29581 16.7955 8.547 16.8995 8.80892 16.8995C9.07083 16.8995 9.32203 16.7955 9.50723 16.6103C9.69243 16.4251 9.79648 16.1739 9.79648 15.9119V10.9741C9.79648 10.7122 9.69243 10.461 9.50723 10.2758C9.32203 10.0906 9.07083 9.98656 8.80892 9.98656ZM11.7716 8.999C11.5097 8.999 11.2585 9.10304 11.0733 9.28825C10.8881 9.47345 10.784 9.72464 10.784 9.98656V15.9119C10.784 16.1739 10.8881 16.4251 11.0733 16.6103C11.2585 16.7955 11.5097 16.8995 11.7716 16.8995C12.0335 16.8995 12.2847 16.7955 12.4699 16.6103C12.6551 16.4251 12.7592 16.1739 12.7592 15.9119V12.2975C13.0604 11.9577 13.569 11.5588 14.1349 11.3168C14.4637 11.1766 14.9585 11.1193 15.3022 11.2279C15.4162 11.2569 15.5177 11.322 15.5915 11.4136C15.6429 11.4827 15.7219 11.6368 15.7219 11.9617V15.9119C15.7219 16.1739 15.8259 16.4251 16.0111 16.6103C16.1963 16.7955 16.4475 16.8995 16.7094 16.8995C16.9714 16.8995 17.2225 16.7955 17.4077 16.6103C17.593 16.4251 17.697 16.1739 17.697 15.9119V11.9617C17.697 11.3 17.5291 10.7114 17.1795 10.2394C16.8578 9.81132 16.4076 9.49744 15.8947 9.34366C15.0039 9.06417 14.0173 9.21922 13.3586 9.50167C13.1476 9.59199 12.9421 9.69488 12.7434 9.80979C12.702 9.58224 12.582 9.37644 12.4044 9.22827C12.2268 9.0801 12.0029 8.99896 11.7716 8.999ZM8.80892 7.02387C8.547 7.02387 8.29581 7.12791 8.1106 7.31312C7.9254 7.49832 7.82135 7.74951 7.82135 8.01143C7.82135 8.27335 7.9254 8.52454 8.1106 8.70974C8.29581 8.89495 8.547 8.999 8.80892 8.999C9.07083 8.999 9.32203 8.89495 9.50723 8.70974C9.69243 8.52454 9.79648 8.27335 9.79648 8.01143C9.79648 7.74951 9.69243 7.49832 9.50723 7.31312C9.32203 7.12791 9.07083 7.02387 8.80892 7.02387Z" fill="white"/>
</svg>
