<svg width="90" height="24" viewBox="0 0 90 24" fill="none" xmlns="http://www.w3.org/2000/svg">
<path d="M68.6249 5.70998C68.2779 5.61728 67.8658 5.54373 67.4122 5.49355C66.9585 5.44337 66.4722 5.41754 65.9811 5.41754C65.49 5.41754 65.0037 5.44337 64.55 5.49355C64.0964 5.54373 63.6843 5.61728 63.3374 5.70998L44.9999 10.59L26.6624 5.69998C26.3152 5.6074 25.903 5.53396 25.4494 5.48385C24.9958 5.43375 24.5096 5.40796 24.0186 5.40796C23.5276 5.40796 23.0414 5.43375 22.5878 5.48385C22.1342 5.53396 21.722 5.6074 21.3749 5.69998C21.0277 5.79256 20.7523 5.90247 20.5644 6.02344C20.3765 6.1444 20.2798 6.27405 20.2798 6.40498C20.2798 6.53591 20.3765 6.66556 20.5644 6.78652C20.7523 6.90749 21.0277 7.0174 21.3749 7.10998L39.7124 12L21.3749 16.89C21.0277 16.9826 20.7523 17.0925 20.5644 17.2134C20.3765 17.3344 20.2798 17.464 20.2798 17.595C20.2798 17.7259 20.3765 17.8556 20.5644 17.9765C20.7523 18.0975 21.0277 18.2074 21.3749 18.3C21.722 18.3926 22.1342 18.466 22.5878 18.5161C23.0414 18.5662 23.5276 18.592 24.0186 18.592C24.5096 18.592 24.9958 18.5662 25.4494 18.5161C25.903 18.466 26.3152 18.3926 26.6624 18.3L44.9999 13.41L63.3374 18.3C63.6845 18.3926 64.0967 18.466 64.5503 18.5161C65.0039 18.5662 65.4901 18.592 65.9811 18.592C66.4721 18.592 66.9583 18.5662 67.4119 18.5161C67.8655 18.466 68.2777 18.3926 68.6249 18.3C68.972 18.2074 69.2474 18.0975 69.4353 17.9765C69.6232 17.8556 69.7199 17.7259 69.7199 17.595C69.7199 17.464 69.6232 17.3344 69.4353 17.2134C69.2474 17.0925 68.972 16.9826 68.6249 16.89L50.2874 12L68.6249 7.10998C70.0499 6.72998 70.0499 6.08998 68.6249 5.70998Z" fill="black"/>
</svg>
