<svg width="22" height="22" viewBox="0 0 22 22" fill="none" xmlns="http://www.w3.org/2000/svg">
<path d="M11.6899 1.98096C12.6794 1.9836 13.1816 1.98887 13.6153 2.00119L13.7859 2.00734C13.9829 2.01438 14.1773 2.02318 14.4121 2.03373C15.348 2.07771 15.9865 2.22547 16.5468 2.44272C17.1273 2.66613 17.6163 2.96869 18.1054 3.45684C18.5526 3.89652 18.8987 4.42838 19.1195 5.0154C19.3367 5.57568 19.4845 6.21423 19.5285 7.15095C19.539 7.38491 19.5478 7.57929 19.5549 7.77719L19.5601 7.94782C19.5733 8.38056 19.5786 8.88278 19.5804 9.87228L19.5812 10.5284V11.6806C19.5834 12.3222 19.5767 12.9637 19.561 13.6051L19.5557 13.7757C19.5487 13.9736 19.5399 14.168 19.5294 14.402C19.4854 15.3387 19.3359 15.9763 19.1195 16.5375C18.8993 17.1248 18.5532 17.6568 18.1054 18.0961C17.6656 18.5432 17.1337 18.8892 16.5468 19.1102C15.9865 19.3274 15.348 19.4752 14.4121 19.5192C14.2034 19.529 13.9947 19.5378 13.7859 19.5456L13.6153 19.5508C13.1816 19.5632 12.6794 19.5693 11.6899 19.5711L11.0338 19.5719H9.88245C9.24061 19.5742 8.59877 19.5674 7.95712 19.5517L7.78649 19.5464C7.57769 19.5385 7.36894 19.5294 7.16025 19.5192C6.2244 19.4752 5.58585 19.3274 5.0247 19.1102C4.43775 18.8897 3.9061 18.5436 3.46702 18.0961C3.01937 17.6565 2.67298 17.1247 2.45202 16.5375C2.23477 15.9772 2.087 15.3387 2.04303 14.402C2.03323 14.1933 2.02443 13.9845 2.01664 13.7757L2.01224 13.6051C1.99603 12.9637 1.9887 12.3222 1.99025 11.6806V9.87228C1.9878 9.23073 1.99425 8.58919 2.0096 7.94782L2.01576 7.77719C2.0228 7.57929 2.03159 7.38491 2.04215 7.15095C2.08612 6.21423 2.23389 5.57656 2.45114 5.0154C2.672 4.42778 3.01908 3.89576 3.4679 3.45684C3.90687 3.00957 4.43817 2.66348 5.0247 2.44272C5.58585 2.22547 6.22353 2.07771 7.16025 2.03373C7.39421 2.02318 7.58947 2.01438 7.78649 2.00734L7.95712 2.00207C8.59848 1.98644 9.24003 1.9797 9.88157 1.98184L11.6899 1.98096ZM10.7857 6.37871C9.61939 6.37871 8.50081 6.84204 7.67607 7.66678C6.85133 8.49151 6.388 9.6101 6.388 10.7765C6.388 11.9428 6.85133 13.0614 7.67607 13.8861C8.50081 14.7109 9.61939 15.1742 10.7857 15.1742C11.9521 15.1742 13.0707 14.7109 13.8954 13.8861C14.7202 13.0614 15.1835 11.9428 15.1835 10.7765C15.1835 9.6101 14.7202 8.49151 13.8954 7.66678C13.0707 6.84204 11.9521 6.37871 10.7857 6.37871ZM10.7857 8.1378C11.1323 8.13775 11.4754 8.20594 11.7956 8.33849C12.1157 8.47104 12.4066 8.66536 12.6517 8.91034C12.8967 9.15532 13.0912 9.44617 13.2238 9.76628C13.3565 10.0864 13.4248 10.4295 13.4248 10.776C13.4249 11.1225 13.3567 11.4657 13.2242 11.7858C13.0916 12.106 12.8973 12.3969 12.6523 12.6419C12.4073 12.887 12.1165 13.0814 11.7964 13.2141C11.4762 13.3467 11.1331 13.415 10.7866 13.4151C10.0868 13.4151 9.41567 13.1371 8.92082 12.6423C8.42598 12.1474 8.14798 11.4763 8.14798 10.7765C8.14798 10.0766 8.42598 9.40549 8.92082 8.91065C9.41567 8.4158 10.0868 8.1378 10.7866 8.1378M15.4043 5.05938C15.1127 5.05938 14.833 5.17521 14.6268 5.3814C14.4207 5.58758 14.3048 5.86723 14.3048 6.15882C14.3048 6.45041 14.4207 6.73005 14.6268 6.93624C14.833 7.14242 15.1127 7.25826 15.4043 7.25826C15.6959 7.25826 15.9755 7.14242 16.1817 6.93624C16.3879 6.73005 16.5037 6.45041 16.5037 6.15882C16.5037 5.86723 16.3879 5.58758 16.1817 5.3814C15.9755 5.17521 15.6959 5.05938 15.4043 5.05938Z" fill="white"/>
</svg>
