<svg width="73" height="73" viewBox="0 0 73 73" fill="none" xmlns="http://www.w3.org/2000/svg">
<path d="M39.3264 6.51367C42.6853 6.52263 44.3901 6.54054 45.8621 6.58234L46.4413 6.60324C47.1101 6.62713 47.77 6.65699 48.5672 6.69281C51.744 6.8421 53.9116 7.3437 55.8135 8.08117C57.7841 8.83954 59.4441 9.86663 61.1042 11.5237C62.6224 13.0162 63.7971 14.8217 64.5467 16.8144C65.2842 18.7163 65.7858 20.8839 65.9351 24.0637C65.9709 24.8579 66.0007 25.5177 66.0246 26.1895L66.0425 26.7688C66.0873 28.2377 66.1052 29.9426 66.1112 33.3015L66.1142 35.5288V39.4401C66.1215 41.6179 66.0986 43.7957 66.0455 45.9729L66.0276 46.5521C66.0037 47.2239 65.9739 47.8837 65.938 48.6779C65.7888 51.8577 65.2812 54.0224 64.5467 55.9272C63.7993 57.921 62.6243 59.7269 61.1042 61.2179C59.6112 62.7356 57.8059 63.9103 55.8135 64.6605C53.9116 65.3979 51.744 65.8995 48.5672 66.0488C47.8587 66.0822 47.1501 66.112 46.4413 66.1384L45.8621 66.1563C44.3901 66.1981 42.6853 66.219 39.3264 66.225L37.099 66.228H33.1907C31.0119 66.2355 28.8332 66.2126 26.655 66.1593L26.0758 66.1414C25.367 66.1145 24.6584 66.0837 23.9499 66.0488C20.7731 65.8995 18.6055 65.3979 16.7006 64.6605C14.7082 63.9122 12.9034 62.7372 11.4129 61.2179C9.89334 59.7259 8.7175 57.9204 7.96742 55.9272C7.22994 54.0253 6.72834 51.8577 6.57906 48.6779C6.54579 47.9695 6.51594 47.2609 6.48949 46.5521L6.47456 45.9729C6.41954 43.7957 6.39466 41.618 6.39992 39.4401V33.3015C6.39158 31.1237 6.41348 28.9459 6.4656 26.7688L6.4865 26.1895C6.51039 25.5177 6.54024 24.8579 6.57607 24.0637C6.72536 20.8839 7.22696 18.7193 7.96443 16.8144C8.71418 14.8196 9.89237 13.0136 11.4159 11.5237C12.9061 10.0054 14.7096 8.83055 16.7006 8.08117C18.6055 7.3437 20.7702 6.8421 23.9499 6.69281C24.7441 6.65699 25.407 6.62713 26.0758 6.60324L26.655 6.58533C28.8322 6.53228 31.01 6.50939 33.1877 6.51666L39.3264 6.51367ZM36.2571 21.4422C32.2978 21.4422 28.5006 23.0151 25.701 25.8147C22.9013 28.6144 21.3285 32.4115 21.3285 36.3708C21.3285 40.3301 22.9013 44.1273 25.701 46.9269C28.5006 49.7266 32.2978 51.2994 36.2571 51.2994C40.2164 51.2994 44.0135 49.7266 46.8132 46.9269C49.6128 44.1273 51.1856 40.3301 51.1856 36.3708C51.1856 32.4115 49.6128 28.6144 46.8132 25.8147C44.0135 23.0151 40.2164 21.4422 36.2571 21.4422ZM36.2571 27.4137C37.4333 27.4135 38.5981 27.645 39.6849 28.0949C40.7717 28.5449 41.7593 29.2045 42.5912 30.0361C43.423 30.8677 44.083 31.855 44.5333 32.9417C44.9836 34.0283 45.2155 35.1931 45.2157 36.3693C45.2159 37.5456 44.9844 38.7104 44.5344 39.7972C44.0845 40.884 43.4249 41.8715 42.5933 42.7034C41.7617 43.5353 40.7743 44.1952 39.6877 44.6456C38.601 45.0959 37.4363 45.3278 36.26 45.328C33.8845 45.328 31.6062 44.3843 29.9264 42.7045C28.2466 41.0247 27.3029 38.7464 27.3029 36.3708C27.3029 33.9952 28.2466 31.7169 29.9264 30.0372C31.6062 28.3574 33.8845 27.4137 36.26 27.4137M51.935 16.9637C50.9452 16.9637 49.9959 17.3569 49.296 18.0568C48.5961 18.7567 48.2029 19.706 48.2029 20.6958C48.2029 21.6856 48.5961 22.6349 49.296 23.3348C49.9959 24.0348 50.9452 24.428 51.935 24.428C52.9249 24.428 53.8742 24.0348 54.5741 23.3348C55.274 22.6349 55.6672 21.6856 55.6672 20.6958C55.6672 19.706 55.274 18.7567 54.5741 18.0568C53.8742 17.3569 52.9249 16.9637 51.935 16.9637Z" fill="white"/>
</svg>
