<svg width="64" height="63" viewBox="0 0 64 63" fill="none" xmlns="http://www.w3.org/2000/svg">
<g clip-path="url(#clip0_106_3042)">
<path d="M21.6668 20.1233C21.9588 19.938 22.2922 19.8279 22.6372 19.8029C22.9821 19.7778 23.3279 19.8385 23.6437 19.9796C23.9595 20.1207 24.2354 20.3378 24.4469 20.6114C24.6584 20.8851 24.7988 21.2069 24.8557 21.548L25.4424 25.0513C25.5093 25.45 25.4595 25.8595 25.2989 26.2306C25.1383 26.6016 24.8738 26.9182 24.5372 27.1423L22.4378 28.5419C21.9251 26.8045 21.6655 25.0022 21.6668 23.1907V20.1233ZM40.5239 42.0478C38.7124 42.0492 36.9101 41.7895 35.1727 41.2768L36.5723 39.1815C36.7958 38.8442 37.1122 38.5789 37.4833 38.4175C37.8543 38.2561 38.2642 38.2057 38.6633 38.2722L42.1666 38.8589C42.5077 38.9158 42.8295 39.0562 43.1032 39.2677C43.3768 39.4792 43.5939 39.7551 43.735 40.0709C43.8761 40.3867 43.9368 40.7325 43.9117 41.0774C43.8866 41.4224 43.7766 41.7558 43.5913 42.0478H40.5239Z" fill="white"/>
<path fill-rule="evenodd" clip-rule="evenodd" d="M0.714266 31.5717C0.714579 24.5478 3.06777 17.7264 7.39825 12.1963C11.7287 6.6662 17.7869 2.74609 24.6059 1.06167C31.4248 -0.622759 38.6115 0.0255852 45.0189 2.90322C51.4262 5.78086 56.685 10.7219 59.9558 16.9378C63.2267 23.1537 64.321 30.2861 63.0642 37.1966C61.8074 44.1072 58.272 50.3976 53.0221 55.0638C47.7722 59.7301 41.1105 62.5032 34.1002 62.9407C27.0899 63.3781 20.1351 61.4547 14.3459 57.4772L3.74398 62.7782C3.35111 62.9728 2.90707 63.0393 2.47441 62.9683C2.04176 62.8973 1.64228 62.6923 1.33225 62.3823C1.02222 62.0723 0.817259 61.6728 0.746238 61.2401C0.675217 60.8075 0.741713 60.3635 0.936361 59.9706L6.23731 49.3687C2.6316 44.1349 0.705133 37.9273 0.714266 31.5717ZM18.44 17.2403L19.3032 16.662C20.1765 16.0804 21.1814 15.7266 22.2264 15.6329C23.2715 15.5392 24.3233 15.7085 25.2861 16.1256C26.2489 16.5426 27.092 17.194 27.7385 18.0204C28.385 18.8468 28.8144 19.8218 28.9874 20.8567L29.5741 24.3641C29.7732 25.559 29.6229 26.7859 29.1412 27.8973C28.6594 29.0088 27.8668 29.9573 26.8586 30.6289L24.1013 32.4643C25.7911 35.4517 28.2606 37.9241 31.2461 39.6174L33.0899 36.8601C33.7611 35.8527 34.709 35.0605 35.8196 34.5788C36.9302 34.0971 38.1563 33.9464 39.3505 34.1447L42.8579 34.7313C43.8927 34.9044 44.8678 35.3338 45.6942 35.9803C46.5206 36.6268 47.172 37.4698 47.589 38.4326C48.006 39.3954 48.1754 40.4473 48.0817 41.4923C47.988 42.5373 47.6342 43.5423 47.0526 44.4155L46.4743 45.283C46.2845 45.5773 46.0239 45.8193 45.7165 45.9869C45.409 46.1545 45.0645 46.2424 44.7143 46.2426H40.5238C37.4968 46.2426 34.4994 45.6463 31.7029 44.4878C28.9063 43.3293 26.3654 41.6312 24.2252 39.4906C22.085 37.35 20.3874 34.8087 19.2294 32.012C18.0714 29.2152 17.4756 26.2178 17.4762 23.1908V19.0003C17.4768 18.6497 17.5653 18.3049 17.7337 17.9974C17.9021 17.6899 18.1449 17.4296 18.44 17.2403Z" fill="white"/>
</g>
<defs>
<clipPath id="clip0_106_3042">
<rect width="62.8571" height="62.8571" fill="white" transform="translate(0.714233 0.143066)"/>
</clipPath>
</defs>
</svg>
