<svg width="20" height="19" viewBox="0 0 20 19" fill="none" xmlns="http://www.w3.org/2000/svg">
<g clip-path="url(#clip0_229_43)">
<path d="M7.09131 6.05218C7.17735 5.99761 7.27556 5.96518 7.37718 5.9578C7.4788 5.95042 7.58066 5.9683 7.67369 6.00986C7.76671 6.05143 7.848 6.11537 7.9103 6.19599C7.9726 6.27661 8.01397 6.3714 8.03073 6.47189L8.20355 7.5039C8.22328 7.62136 8.2086 7.74201 8.16129 7.85131C8.11397 7.96061 8.03605 8.05389 7.93691 8.11989L7.31845 8.5322C7.16743 8.02037 7.09093 7.48945 7.09131 6.9558V6.05218ZM12.6464 12.5109C12.1127 12.5112 11.5818 12.4348 11.07 12.2837L11.4823 11.6665C11.5481 11.5671 11.6413 11.4889 11.7506 11.4414C11.8599 11.3939 11.9807 11.379 12.0983 11.3986L13.1303 11.5714C13.2308 11.5882 13.3256 11.6296 13.4062 11.6919C13.4868 11.7542 13.5507 11.8355 13.5923 11.9285C13.6339 12.0215 13.6517 12.1234 13.6444 12.225C13.637 12.3266 13.6046 12.4248 13.55 12.5109H12.6464Z" fill="white"/>
<path fill-rule="evenodd" clip-rule="evenodd" d="M0.918955 9.42488C0.919047 7.35573 1.61226 5.34625 2.88796 3.71716C4.16366 2.08806 5.94831 0.933254 7.95708 0.437045C9.96585 -0.0591629 12.0829 0.13183 13.9705 0.979542C15.858 1.82725 17.4071 3.28282 18.3707 5.11393C19.3342 6.94504 19.6566 9.04614 19.2864 11.0819C18.9161 13.1176 17.8746 14.9707 16.3281 16.3453C14.7816 17.7199 12.8191 18.5369 10.754 18.6657C8.68885 18.7946 6.64007 18.228 4.93464 17.0563L1.81147 18.6179C1.69573 18.6752 1.56492 18.6948 1.43747 18.6739C1.31001 18.653 1.19233 18.5926 1.101 18.5012C1.00967 18.4099 0.949295 18.2922 0.928373 18.1648C0.907452 18.0373 0.927041 17.9065 0.984381 17.7908L2.54597 14.6676C1.48377 13.1258 0.916264 11.2971 0.918955 9.42488ZM6.1407 5.20304L6.395 5.03269C6.65224 4.86134 6.94829 4.75712 7.25614 4.72951C7.56399 4.70191 7.87386 4.75181 8.15748 4.87466C8.4411 4.99751 8.68946 5.1894 8.87991 5.43284C9.07036 5.67628 9.19685 5.96352 9.24783 6.26838L9.42065 7.30162C9.47932 7.6536 9.43503 8.01505 9.29312 8.34246C9.1512 8.66987 8.91771 8.9493 8.62072 9.14713L7.80845 9.68782C8.30625 10.5679 9.03372 11.2962 9.9132 11.795L10.4564 10.9828C10.6541 10.686 10.9333 10.4526 11.2605 10.3107C11.5877 10.1688 11.9488 10.1244 12.3006 10.1828L13.3339 10.3557C13.6387 10.4066 13.926 10.5331 14.1694 10.7236C14.4128 10.914 14.6047 11.1624 14.7276 11.446C14.8504 11.7296 14.9003 12.0395 14.8727 12.3473C14.8451 12.6552 14.7409 12.9512 14.5696 13.2085L14.3992 13.464C14.3433 13.5507 14.2665 13.622 14.176 13.6714C14.0854 13.7208 13.9839 13.7467 13.8807 13.7467H12.6463C11.7546 13.7467 10.8716 13.5711 10.0478 13.2298C9.22394 12.8885 8.47542 12.3883 7.84494 11.7577C7.21446 11.1271 6.71437 10.3785 6.37324 9.55458C6.03211 8.7307 5.85661 7.84768 5.85678 6.95597V5.72151C5.85695 5.61824 5.88303 5.51666 5.93263 5.42608C5.98224 5.3355 6.05378 5.25881 6.1407 5.20304Z" fill="white"/>
</g>
<defs>
<clipPath id="clip0_229_43">
<rect width="18.5168" height="18.5168" fill="white" transform="translate(0.918945 0.166382)"/>
</clipPath>
</defs>
</svg>
